<svg width="35" height="35" viewBox="0 0 35 35" fill="none" xmlns="http://www.w3.org/2000/svg">
<path fill-rule="evenodd" clip-rule="evenodd" d="M17.4167 0C7.79792 0 0 7.79792 0 17.4167C0 27.0354 7.79792 34.8333 17.4167 34.8333C27.0354 34.8333 34.8333 27.0354 34.8333 17.4167C34.8333 7.79792 27.0354 0 17.4167 0ZM24.966 14.4717C25.105 14.3128 25.2108 14.1277 25.2773 13.9273C25.3437 13.7269 25.3694 13.5152 25.3528 13.3047C25.3362 13.0943 25.2777 12.8892 25.1807 12.7017C25.0837 12.5142 24.9501 12.3479 24.7879 12.2128C24.6258 12.0776 24.4382 11.9763 24.2362 11.9147C24.0343 11.8531 23.8221 11.8325 23.6121 11.8541C23.4021 11.8758 23.1985 11.9392 23.0133 12.0407C22.8282 12.1421 22.6652 12.2796 22.534 12.445L15.7257 20.6134L12.2027 17.0889C11.9041 16.8005 11.5042 16.6409 11.089 16.6445C10.6739 16.6481 10.2768 16.8146 9.9832 17.1082C9.68964 17.4018 9.52312 17.7989 9.51952 18.214C9.51591 18.6292 9.6755 19.0291 9.96392 19.3277L14.7139 24.0777C14.8695 24.2332 15.0557 24.3546 15.2608 24.4341C15.4659 24.5136 15.6853 24.5495 15.905 24.5395C16.1247 24.5295 16.34 24.4739 16.537 24.3761C16.734 24.2784 16.9085 24.1406 17.0493 23.9717L24.966 14.4717Z" fill="#4EA9E6"/>
</svg>
