<svg width="32" height="32" viewBox="0 0 32 32" fill="none" xmlns="http://www.w3.org/2000/svg">
<path d="M30 7.53906H20V3.125C20 2.43359 19.4414 1.875 18.75 1.875H2.8125V0.3125C2.8125 0.140625 2.67188 0 2.5 0H0.3125C0.140625 0 0 0.140625 0 0.3125V30.9375C0 31.1094 0.140625 31.25 0.3125 31.25H2.5C2.67188 31.25 2.8125 31.1094 2.8125 30.9375V20.625H12.5V25.0391C12.5 25.7305 13.0586 26.2891 13.75 26.2891H30C30.6914 26.2891 31.25 25.7305 31.25 25.0391V8.78906C31.25 8.09766 30.6914 7.53906 30 7.53906Z" fill="#4EA9E6"/>
</svg>
