<svg width="45" height="45" viewBox="0 0 45 45" fill="none" xmlns="http://www.w3.org/2000/svg">
<path d="M41.2235 20.6794C41.2222 19.7491 40.9452 18.8401 40.4275 18.0672C39.9098 17.2943 39.1746 16.6922 38.3149 16.3368C37.4552 15.9815 36.5095 15.8889 35.5972 16.0708C34.6848 16.2527 33.8469 16.7009 33.1892 17.3587C30.5567 15.66 27.1948 14.5781 23.5029 14.4094C23.5022 13.639 23.6751 12.8783 24.0088 12.184C24.3425 11.4896 24.8284 10.8794 25.4304 10.3987C26.0313 9.91455 26.7337 9.57221 27.4852 9.39723C28.2368 9.22224 29.0181 9.21912 29.7711 9.3881L29.9811 9.43498C29.9811 9.48748 29.9736 9.53998 29.9736 9.59248C29.9715 10.5385 30.3109 11.4534 30.9295 12.1692C31.548 12.885 32.404 13.3535 33.3403 13.4887C34.2766 13.6239 35.2302 13.4167 36.0259 12.9051C36.8217 12.3935 37.4061 11.612 37.6717 10.704C37.9374 9.79609 37.8665 8.82279 37.472 7.96296C37.0775 7.10313 36.386 6.41453 35.5245 6.0237C34.6631 5.63287 33.6895 5.56606 32.7827 5.83555C31.8759 6.10504 31.0968 6.69272 30.5886 7.4906L30.2117 7.40623C29.1618 7.17049 28.0722 7.17485 27.0242 7.419C25.9762 7.66314 24.9968 8.14076 24.1592 8.81623C23.3198 9.48666 22.6423 10.3377 22.1771 11.306C21.712 12.2743 21.471 13.3351 21.4723 14.4094C17.7785 14.5781 14.4185 15.66 11.7879 17.3569C11.3096 16.874 10.7323 16.5005 10.0958 16.262C9.45936 16.0235 8.77878 15.9257 8.10091 15.9753C7.42303 16.025 6.76395 16.2208 6.169 16.5495C5.57404 16.8781 5.05733 17.3317 4.6544 17.8791C4.25147 18.4265 3.97189 19.0546 3.83488 19.7204C3.69788 20.3861 3.7067 21.0736 3.86074 21.7356C4.01478 22.3976 4.31038 23.0184 4.72722 23.5553C5.14406 24.0921 5.67223 24.5323 6.27542 24.8456C6.16105 25.4269 6.10105 26.0231 6.10105 26.6306C6.10105 33.3919 13.4361 38.8744 22.4886 38.8744C31.5373 38.8744 38.8742 33.3919 38.8742 26.6306C38.8742 26.0231 38.8142 25.4287 38.6998 24.8456C39.4608 24.4478 40.0983 23.8492 40.5432 23.1147C40.988 22.3803 41.2234 21.538 41.2235 20.6794ZM33.9017 7.69498C34.3948 7.71048 34.8626 7.91729 35.206 8.27162C35.5494 8.62595 35.7414 9.1 35.7414 9.59342C35.7414 10.0868 35.5494 10.5609 35.206 10.9152C34.8626 11.2695 34.3948 11.4764 33.9017 11.4919C33.4085 11.4764 32.9407 11.2695 32.5973 10.9152C32.254 10.5609 32.062 10.0868 32.062 9.59342C32.062 9.1 32.254 8.62595 32.5973 8.27162C32.9407 7.91729 33.4085 7.71048 33.9017 7.69498ZM5.78042 20.6812C5.78042 19.2056 6.98042 18.0056 8.45605 18.0056C9.08792 18.0056 9.6673 18.2269 10.1248 18.5944C8.69417 19.8225 7.58605 21.2662 6.89792 22.8506C6.55254 22.6039 6.27098 22.2785 6.07663 21.9012C5.88227 21.5239 5.78073 21.1056 5.78042 20.6812ZM32.8592 33.6619C30.1123 35.715 26.4279 36.8456 22.4867 36.8456C18.5454 36.8456 14.861 35.715 12.116 33.6619C9.5473 31.7437 8.13167 29.2462 8.13167 26.6306C8.13167 24.0169 9.54542 21.5212 12.116 19.5994C14.861 17.5481 18.5435 16.4194 22.4867 16.4194C26.4298 16.4194 30.1123 17.5481 32.8592 19.6012C35.4279 21.5212 36.8435 24.0169 36.8435 26.6325C36.8435 29.2462 35.4279 31.7437 32.8592 33.6637V33.6619ZM38.0754 22.8487C37.3873 21.2644 36.2792 19.8225 34.8485 18.5944C35.306 18.2269 35.8873 18.0056 36.5173 18.0056C37.9929 18.0056 39.1929 19.2056 39.1929 20.6812C39.1929 21.5737 38.7523 22.365 38.0754 22.8487Z" fill="#4EA9E6"/>
<path d="M16.502 25.9144C17.6856 25.9144 18.6451 24.9549 18.6451 23.7712C18.6451 22.5876 17.6856 21.6281 16.502 21.6281C15.3184 21.6281 14.3589 22.5876 14.3589 23.7712C14.3589 24.9549 15.3184 25.9144 16.502 25.9144Z" fill="#4EA9E6"/>
<path d="M28.4717 25.9144C29.6554 25.9144 30.6149 24.9549 30.6149 23.7712C30.6149 22.5876 29.6554 21.6281 28.4717 21.6281C27.2881 21.6281 26.3286 22.5876 26.3286 23.7712C26.3286 24.9549 27.2881 25.9144 28.4717 25.9144Z" fill="#4EA9E6"/>
<path d="M27.5644 28.9781C26.0576 30.3525 24.0913 31.1137 22.0519 31.1119C20.9272 31.1166 19.8138 30.8874 18.7825 30.4387C17.7512 29.99 16.8245 29.3317 16.0613 28.5056C15.8778 28.3085 15.6235 28.1923 15.3543 28.1826C15.0851 28.1729 14.8231 28.2706 14.6259 28.4541C14.4288 28.6376 14.3126 28.8919 14.3029 29.1611C14.2932 29.4302 14.3909 29.6922 14.5744 29.8894C15.5321 30.9141 16.6898 31.7315 17.9759 32.291C19.2621 32.8506 20.6493 33.1404 22.0519 33.1425C24.5979 33.1448 27.0526 32.1944 28.9331 30.4781C29.0316 30.3883 29.1114 30.2799 29.1681 30.1592C29.2247 30.0384 29.2569 29.9077 29.263 29.7745C29.2691 29.6414 29.2489 29.5083 29.2036 29.3829C29.1582 29.2575 29.0886 29.1423 28.9988 29.0438C28.9089 28.9453 28.8005 28.8655 28.6798 28.8089C28.559 28.7523 28.4284 28.72 28.2952 28.7139C28.162 28.7078 28.0289 28.728 27.9035 28.7733C27.7781 28.8187 27.6629 28.8883 27.5644 28.9781Z" fill="#4EA9E6"/>
</svg>
