<svg width="180" height="180" viewBox="0 0 180 180" fill="none" xmlns="http://www.w3.org/2000/svg">
<path d="M163.439 86.7525C163.439 126.375 129.854 158.498 88.4395 158.498C83.5545 158.503 78.717 158.058 73.9269 157.163C70.4845 156.51 68.767 156.188 67.567 156.375C66.367 156.555 64.657 157.463 61.252 159.27C51.5495 164.437 40.3855 166.174 29.572 164.198C33.7026 159.091 36.5035 153.041 37.7245 146.588C38.4745 142.613 36.6145 138.75 33.8245 135.923C21.1945 123.083 13.4395 105.788 13.4395 86.7525C13.4395 47.13 47.0245 15 88.4395 15C129.854 15 163.439 47.13 163.439 86.7525Z" fill="#4EA9E6" stroke="#4EA9E6" stroke-width="1.5" stroke-linecap="round" stroke-linejoin="round"/>
<path d="M131.753 78.5286C131.75 76.4355 131.127 74.3903 129.962 72.6512C128.797 70.9122 127.143 69.5574 125.209 68.7579C123.274 67.9584 121.146 67.7501 119.094 68.1594C117.041 68.5686 115.156 69.577 113.676 71.0572C107.753 67.235 100.188 64.8007 91.8816 64.4211C91.88 62.6877 92.269 60.9763 93.0198 59.414C93.7707 57.8517 94.864 56.4788 96.2185 55.3972C97.5704 54.3077 99.1507 53.5375 100.842 53.1438C102.533 52.7501 104.291 52.743 105.985 53.1232L106.457 53.2287C106.457 53.3468 106.44 53.465 106.44 53.5831C106.436 55.7116 107.2 57.7702 108.591 59.3807C109.983 60.9913 111.909 62.0455 114.016 62.3496C116.122 62.6538 118.268 62.1875 120.058 61.0365C121.849 59.8854 123.164 58.1269 123.761 56.0841C124.359 54.0412 124.2 51.8513 123.312 49.9167C122.424 47.9821 120.869 46.4327 118.93 45.5534C116.992 44.674 114.801 44.5237 112.761 45.13C110.721 45.7363 108.968 47.0586 107.824 48.8539L106.976 48.664C104.614 48.1336 102.162 48.1434 99.8044 48.6928C97.4464 49.2421 95.2428 50.3167 93.3581 51.8365C91.4695 53.345 89.9452 55.2598 88.8986 57.4385C87.8519 59.6173 87.3098 62.004 87.3127 64.4211C79.0017 64.8007 71.4417 67.235 65.5228 71.0529C64.4465 69.9665 63.1477 69.1261 61.7156 68.5895C60.2836 68.0529 58.7523 67.8329 57.227 67.9445C55.7018 68.0562 54.2189 68.4969 52.8802 69.2363C51.5416 69.9758 50.379 70.9964 49.4724 72.228C48.5658 73.4596 47.9368 74.873 47.6285 76.3709C47.3202 77.8688 47.3401 79.4157 47.6867 80.9052C48.0332 82.3947 48.6984 83.7914 49.6362 84.9994C50.5741 86.2073 51.7625 87.1978 53.1197 87.9026C52.8624 89.2104 52.7274 90.552 52.7274 91.9189C52.7274 107.132 69.2311 119.467 89.5992 119.467C109.959 119.467 126.467 107.132 126.467 91.9189C126.467 90.552 126.332 89.2147 126.075 87.9026C127.787 87.0075 129.221 85.6606 130.222 84.0081C131.223 82.3556 131.753 80.4606 131.753 78.5286ZM115.279 49.3137C116.388 49.3486 117.441 49.8139 118.214 50.6112C118.986 51.4084 119.418 52.475 119.418 53.5852C119.418 54.6954 118.986 55.762 118.214 56.5592C117.441 57.3565 116.388 57.8218 115.279 57.8567C114.169 57.8218 113.117 57.3565 112.344 56.5592C111.571 55.762 111.139 54.6954 111.139 53.5852C111.139 52.475 111.571 51.4084 112.344 50.6112C113.117 49.8139 114.169 49.3486 115.279 49.3137ZM52.006 78.5328C52.006 75.2126 54.706 72.5126 58.0261 72.5126C59.4478 72.5126 60.7514 73.0104 61.7808 73.8373C58.5619 76.6006 56.0686 79.849 54.5203 83.4139C53.7432 82.8589 53.1097 82.1265 52.6724 81.2776C52.2351 80.4287 52.0066 79.4877 52.006 78.5328ZM112.933 107.739C106.753 112.359 98.4628 114.903 89.595 114.903C80.7272 114.903 72.4374 112.359 66.2611 107.739C60.4814 103.423 57.2963 97.804 57.2963 91.9189C57.2963 86.0379 60.4772 80.4228 66.2611 76.0986C72.4374 71.4832 80.723 68.9436 89.595 68.9436C98.4671 68.9436 106.753 71.4832 112.933 76.1028C118.713 80.4228 121.898 86.0379 121.898 91.9231C121.898 97.804 118.713 103.423 112.933 107.743V107.739ZM124.67 83.4097C123.121 79.8448 120.628 76.6006 117.409 73.8373C118.439 73.0104 119.746 72.5126 121.164 72.5126C124.484 72.5126 127.184 75.2126 127.184 78.5328C127.184 80.5409 126.193 82.3212 124.67 83.4097Z" fill="white"/>
<path d="M76.1296 90.3074C78.7928 90.3074 80.9517 88.1485 80.9517 85.4854C80.9517 82.8222 78.7928 80.6633 76.1296 80.6633C73.4665 80.6633 71.3076 82.8222 71.3076 85.4854C71.3076 88.1485 73.4665 90.3074 76.1296 90.3074Z" fill="white"/>
<path d="M103.061 90.3074C105.724 90.3074 107.883 88.1485 107.883 85.4854C107.883 82.8222 105.724 80.6633 103.061 80.6633C100.398 80.6633 98.2393 82.8222 98.2393 85.4854C98.2393 88.1485 100.398 90.3074 103.061 90.3074Z" fill="white"/>
<path d="M101.019 97.2007C97.6293 100.293 93.2051 102.006 88.6164 102.002C86.0858 102.012 83.5807 101.497 81.2603 100.487C78.9398 99.4775 76.8547 97.9963 75.1375 96.1376C74.7246 95.694 74.1524 95.4325 73.5468 95.4108C72.9411 95.389 72.3516 95.6087 71.908 96.0216C71.4644 96.4345 71.2029 97.0067 71.1812 97.6123C71.1594 98.2179 71.3791 98.8074 71.792 99.2511C73.9468 101.557 76.5517 103.396 79.4455 104.655C82.3393 105.914 85.4606 106.566 88.6164 106.571C94.3448 106.576 99.8679 104.437 104.099 100.576C104.321 100.374 104.5 100.13 104.628 99.858C104.755 99.5864 104.828 99.2923 104.841 98.9927C104.855 98.693 104.81 98.3935 104.708 98.1114C104.606 97.8293 104.449 97.57 104.247 97.3484C104.045 97.1268 103.801 96.9472 103.529 96.8198C103.257 96.6925 102.963 96.6199 102.664 96.6062C102.364 96.5925 102.065 96.6379 101.782 96.7399C101.5 96.8419 101.241 96.9985 101.019 97.2007Z" fill="white"/>
</svg>
