<svg width="45" height="45" viewBox="0 0 45 45" fill="none" xmlns="http://www.w3.org/2000/svg">
<path d="M29.5311 22.5C27.7241 22.5 25.9768 21.6932 24.6092 20.2289C23.2795 18.8007 22.4674 16.8961 22.3241 14.8676C22.1712 12.7037 22.8312 10.7139 24.1821 9.26367C25.533 7.81348 27.4217 7.03125 29.5311 7.03125C31.6256 7.03125 33.5196 7.82754 34.8661 9.27422C36.2258 10.735 36.8876 12.7213 36.7346 14.8667C36.5879 16.8979 35.7766 18.8016 34.4495 20.228C33.0854 21.6932 31.339 22.5 29.5311 22.5Z" fill="#4EA9E6"/>
<path d="M41.1178 37.9688H17.9454C17.5729 37.9707 17.2048 37.8872 16.8696 37.7247C16.5344 37.5621 16.2409 37.3248 16.0118 37.031C15.7688 36.7125 15.601 36.3431 15.521 35.9506C15.4409 35.558 15.4507 35.1525 15.5495 34.7643C16.2896 31.7927 18.123 29.3282 20.8511 27.6381C23.2725 26.1387 26.3548 25.3125 29.5312 25.3125C32.7699 25.3125 35.7714 26.1035 38.2069 27.602C40.9411 29.2834 42.7772 31.7619 43.5137 34.7695C43.6114 35.158 43.6201 35.5636 43.5391 35.9559C43.4581 36.3483 43.2896 36.7172 43.0461 37.0354C42.8173 37.3278 42.5245 37.5639 42.1902 37.7257C41.856 37.8875 41.4891 37.9707 41.1178 37.9688Z" fill="#4EA9E6"/>
<path d="M12.9199 22.8516C9.82701 22.8516 7.10767 19.9758 6.85542 16.4417C6.73062 14.6312 7.29488 12.9568 8.43746 11.729C9.56773 10.5135 11.1621 9.84375 12.9199 9.84375C14.6777 9.84375 16.2597 10.517 17.3961 11.7396C18.5475 12.9771 19.11 14.6479 18.9782 16.4435C18.7259 19.9767 16.0075 22.8516 12.9199 22.8516Z" fill="#4EA9E6"/>
<path d="M18.6907 25.6157C17.1447 24.8599 15.1382 24.4819 12.9207 24.4819C10.3314 24.4819 7.81689 25.1569 5.83935 26.3821C3.59726 27.7734 2.08906 29.7993 1.47998 32.2453C1.39084 32.5971 1.38241 32.9646 1.45532 33.3201C1.52822 33.6756 1.68057 34.0101 1.90097 34.2984C2.11011 34.5669 2.37803 34.7839 2.68414 34.9326C2.99025 35.0813 3.32638 35.1578 3.6667 35.1563H13.4226C13.5872 35.1562 13.7467 35.0984 13.8731 34.9929C13.9995 34.8874 14.0848 34.7408 14.1143 34.5788C14.1239 34.5234 14.1362 34.4681 14.1503 34.4136C14.8956 31.42 16.642 28.8905 19.2225 27.0466C19.3174 26.9782 19.3937 26.8872 19.4446 26.7818C19.4954 26.6764 19.5192 26.56 19.5137 26.4432C19.5082 26.3263 19.4736 26.2126 19.4131 26.1125C19.3525 26.0124 19.268 25.9289 19.1671 25.8697C19.0291 25.7889 18.8709 25.7036 18.6907 25.6157Z" fill="#4EA9E6"/>
</svg>
